# xmcd CD database file
#
# Track frame offsets:
#	187
#	16082
#	32077
#	46805
#	61415
#	80155
#	97862
#	113122
#
# Disc length: 1726 seconds
#
# Revision: 0
# Processed by: cddbd v1.5.1PL2 Copyright (c) Steve Scherf et al.
# Submitted via: CDex 1.51
#
DISCID=5806bc08
DTITLE=フランク永井 - BEST OF BEST
DYEAR=1900
DGENRE=Blues
TTITLE0=01　おまえに
TTITLE1=02　有楽町で逢いましょう
TTITLE2=03　羽田発7時50分
TTITLE3=04　夜霧の第二国道
TTITLE4=05　俺は淋しいんだ
TTITLE5=06　夜霧に消えたチャコ
TTITLE6=07　大阪ぐらし
TTITLE7=08　君恋し
EXTD=
EXTT0=
EXTT1=
EXTT2=
EXTT3=
EXTT4=
EXTT5=
EXTT6=
EXTT7=
PLAYORDER=
